<svg xmlns="http://www.w3.org/2000/svg" version="1.1" xmlns:xlink="http://www.w3.org/1999/xlink" xmlns:svgjs="http://svgjs.dev/svgjs" width="1500" height="204" viewBox="0 0 1500 204"><g transform="matrix(1,0,0,1,-0.9090909090909918,-0.543056904834188)"><svg viewBox="0 0 396 54" data-background-color="#ffffff" preserveAspectRatio="xMidYMid meet" height="204" width="1500" xmlns="http://www.w3.org/2000/svg" xmlns:xlink="http://www.w3.org/1999/xlink"><g id="tight-bounds" transform="matrix(1,0,0,1,0.2400000000000091,0.14375035716199136)"><svg viewBox="0 0 395.52 53.712499285676024" height="53.712499285676024" width="395.52"><g><svg viewBox="0 0 431.30071287109024 58.57159999999999" height="53.712499285676024" width="395.52"><g><svg viewBox="0 0 431.30071287109024 58.57159999999999" height="58.57159999999999" width="431.30071287109024"><g id="textblocktransform"><svg viewBox="0 0 431.30071287109024 58.57159999999999" height="58.57159999999999" width="431.30071287109024" id="textblock"><g><svg viewBox="0 0 431.30071287109024 58.57159999999999" height="58.57159999999999" width="431.30071287109024"><g><svg><g></g><g></g></svg></g><g><svg><g></g><g><svg></svg></g></svg></g><g id="text-0"><svg viewBox="0 0 431.30071287109024 58.57159999999999" height="58.57159999999999" width="431.30071287109024"><g><svg xmlns="http://www.w3.org/2000/svg" xmlns:xlink="http://www.w3.org/1999/xlink" version="1.1" x="0" y="0" viewBox="3.308102034998465 0.2060000000000013 57.38289796500153 63.587999999999994" enable-background="new 0 0 64 64" xml:space="preserve" height="58.57159999999999" width="52.85601287109019" class="icon-cg-0" data-fill-palette-color="accent" id="cg-0"><g fill="#ba3b0a" data-fill-palette-color="accent"><path d="M32.213 30.931c1.313 1.742 12.943-2.2 12.943-14.364 0-3.976-3.224-7.199-7.199-7.199-2.351 0-4.431 1.13-5.744 2.872-1.314-1.742-3.394-2.872-5.743-2.872-3.976 0-7.199 3.223-7.199 7.199C19.271 30.543 30.899 32.672 32.213 30.931z" fill="#ba3b0a" data-fill-palette-color="accent"></path><path d="M31.572 10.592l1.281 0.303c0.06-0.252 1.4-6.208-3.964-10.689l-0.843 1.01C32.769 5.162 31.624 10.372 31.572 10.592z" fill="#ba3b0a" data-fill-palette-color="accent"></path><path d="M45.356 2.743c-10.607-6.119-12.401 1.02-12.401 1.02C38.258 9.636 45.356 2.743 45.356 2.743z" fill="#ba3b0a" data-fill-palette-color="accent"></path><path d="M58.116 37.004c0.124-2.325-0.004-5.209-0.103-6.849l2.678-2.678-15.028-5.511c-0.987 3.115-2.705 5.324-4.233 6.773-2.81 2.666-6.062 3.86-8.038 3.86-0.461 0-0.841-0.064-1.153-0.166-0.478 0.194-1.061 0.293-1.734 0.293-2.962 0-8.186-2.084-10.876-7.833L4.997 39.526c0 0-1.77 1.096-1.686 5.058 0.085 3.958 4.298 6.319 4.298 6.319l28.734 12.891 24.18-24.184C61.075 37.48 58.451 37.049 58.116 37.004zM9.294 48.206c0 0-3.118-0.758-2.949-4.13 0.118-2.361 1.937-2.779 1.937-2.779l26.416 11.154 0.224 7.479L9.294 48.206zM56.981 38.099L35.945 59.137l-0.203-6.709L57.018 31.15C57.118 33.168 57.202 36.12 56.981 38.099z" fill="#ba3b0a" data-fill-palette-color="accent"></path></g></svg></g><g transform="matrix(1,0,0,1,66.68441287109019,0)"><svg width="364.6163" viewBox="1.8 -35.9 225.32999999999998 36.199999999999996" height="58.57159999999999" data-palette-color="#ffa458"><path d="M30.05-33.7L18.3 0 13.2 0 1.8-33.7 6.15-33.7 10.55-20.35 15.8-3.65Q17.75-9.95 21.2-20.35L21.2-20.35 25.7-33.7 30.05-33.7ZM43.25-3.05L43.25-3.05Q45.95-3.05 47.55-4.58 49.15-6.1 49.15-8.45L49.15-8.45 49.15-11.7 44.75-11.7Q41.55-11.7 39.95-10.45 38.35-9.2 38.35-7.3 38.35-5.4 39.6-4.23 40.85-3.05 43.25-3.05ZM49.2 0L49.2-3Q47.25 0.25 42.1 0.25L42.1 0.25Q38.55 0.25 36.37-1.85 34.2-3.95 34.2-7.15L34.2-7.15Q34.2-10.8 36.97-12.83 39.75-14.85 44.55-14.85L44.55-14.85 49.15-14.85 49.15-16.15Q49.15-19.15 47.8-20.68 46.45-22.2 43.25-22.2L43.25-22.2Q39.2-22.2 36.05-20.05L36.05-20.05 36.05-24Q38.9-25.75 43.55-25.75L43.55-25.75Q53.1-25.75 53.1-16.05L53.1-16.05 53.1 0 49.2 0ZM80.45-25.35L71.4 0 66.55 0 57.7-25.35 61.8-25.35 65.3-14.65 69-3.1Q69.45-5.25 72.75-14.65L72.75-14.65 76.35-25.35 80.45-25.35ZM98.04-4.4L98.04-0.65Q96.39 0.25 94.34 0.25L94.34 0.25Q86.84 0.25 86.84-7.4L86.84-7.4 86.84-22.15 82.79-22.15 82.79-25.35 86.84-25.35 86.84-31.65 90.79-31.65 90.79-25.35 97.79-25.35 97.79-22.15 90.79-22.15 90.79-7.3Q90.79-3.25 94.59-3.25L94.59-3.25Q96.54-3.25 98.04-4.4L98.04-4.4ZM116.29 0L116.29 0 103.99 0 103.99-33.7 114.14-33.7Q119.34-33.7 122.47-31.3 125.59-28.9 125.59-24.85L125.59-24.85Q125.59-21.95 123.97-19.83 122.34-17.7 119.79-17.15L119.79-17.15Q122.59-16.7 124.57-14.63 126.54-12.55 126.54-9L126.54-9Q126.54-4.95 123.87-2.48 121.19 0 116.29 0ZM114.14-30.25L114.14-30.25 108.04-30.25 108.04-18.75 113.44-18.75Q117.49-18.75 119.44-20.45 121.39-22.15 121.39-24.85L121.39-24.85Q121.39-27.2 119.57-28.73 117.74-30.25 114.14-30.25ZM114.94-15.3L114.94-15.3 108.04-15.3 108.04-3.45 115.69-3.45Q118.89-3.45 120.62-4.93 122.34-6.4 122.34-9.25 122.34-12.1 120.42-13.7 118.49-15.3 114.94-15.3ZM136.24-13.85L136.24 0 132.29 0 132.34-25.35 136.24-25.35 136.24-20.9Q138.24-25.6 143.14-25.6L143.14-25.6Q144.04-25.6 144.54-25.5L144.54-25.5 144.54-21.6Q143.49-21.95 142.39-21.95L142.39-21.95Q139.74-21.95 137.99-19.5 136.24-17.05 136.24-13.85L136.24-13.85ZM156.39-3.05L156.39-3.05Q159.09-3.05 160.69-4.58 162.29-6.1 162.29-8.45L162.29-8.45 162.29-11.7 157.89-11.7Q154.69-11.7 153.09-10.45 151.49-9.2 151.49-7.3 151.49-5.4 152.74-4.23 153.99-3.05 156.39-3.05ZM162.34 0L162.34-3Q160.39 0.25 155.24 0.25L155.24 0.25Q151.69 0.25 149.51-1.85 147.34-3.95 147.34-7.15L147.34-7.15Q147.34-10.8 150.11-12.83 152.89-14.85 157.69-14.85L157.69-14.85 162.29-14.85 162.29-16.15Q162.29-19.15 160.94-20.68 159.59-22.2 156.39-22.2L156.39-22.2Q152.34-22.2 149.19-20.05L149.19-20.05 149.19-24Q152.04-25.75 156.69-25.75L156.69-25.75Q166.24-25.75 166.24-16.05L166.24-16.05 166.24 0 162.34 0ZM177.38-25.35L177.38 0 173.43 0 173.43-25.35 177.38-25.35ZM177.23-35.15Q177.98-34.4 177.98-33.3 177.98-32.2 177.23-31.48 176.48-30.75 175.38-30.75 174.28-30.75 173.56-31.48 172.83-32.2 172.83-33.3 172.83-34.4 173.56-35.15 174.28-35.9 175.38-35.9 176.48-35.9 177.23-35.15ZM204.88-17.45L204.88 0 200.93 0 200.93-16.4Q200.93-19.2 199.51-20.68 198.08-22.15 195.78-22.15L195.78-22.15Q192.93-22.15 190.86-19.95 188.78-17.75 188.78-13.85L188.78-13.85 188.78 0 184.88 0 184.88-25.35 188.78-25.35 188.78-20.95Q191.03-25.7 196.78-25.7L196.78-25.7Q200.48-25.7 202.68-23.45 204.88-21.2 204.88-17.45L204.88-17.45ZM227.13-6.75L227.13-6.75Q227.13-3.5 224.85-1.6 222.58 0.3 218.63 0.3L218.63 0.3Q214.03 0.3 211.18-1.25L211.18-1.25 211.18-5.1Q214.53-3.1 218.38-3.1L218.38-3.1Q220.68-3.1 221.88-4 223.08-4.9 223.08-6.45L223.08-6.45Q223.08-8.25 221.75-9.25 220.43-10.25 217.33-11.5L217.33-11.5Q214.48-12.6 212.75-14.25 211.03-15.9 211.03-18.7L211.03-18.7Q211.03-21.85 213.4-23.73 215.78-25.6 219.33-25.6L219.33-25.6Q223.28-25.6 225.68-24.5L225.68-24.5 225.68-20.75Q223.38-22.15 219.38-22.15L219.38-22.15Q217.38-22.15 216.2-21.23 215.03-20.3 215.03-18.85L215.03-18.85Q215.03-17.95 215.38-17.28 215.73-16.6 216.75-15.95 217.78-15.3 218.25-15.08 218.73-14.85 220.33-14.15L220.33-14.15Q223.53-12.85 225.33-11.2 227.13-9.55 227.13-6.75Z" opacity="1" transform="matrix(1,0,0,1,0,0)" fill="#ffa458" class="wordmark-text-0" data-fill-palette-color="primary"></path></svg></g></svg></g></svg></g></svg></g></svg></g></svg></g><defs></defs></svg><rect width="395.52" height="53.712499285676024" fill="none" stroke="none" visibility="hidden"></rect></g></svg></g></svg>